<?xml version="1.0" standalone="no"?>
<!DOCTYPE svg PUBLIC "-//W3C//DTD SVG 20010904//EN"
 "http://www.w3.org/TR/2001/REC-SVG-20010904/DTD/svg10.dtd">
<svg version="1.0" xmlns="http://www.w3.org/2000/svg"
 width="100.000000pt" height="100.000000pt" viewBox="0 0 100.000000 100.000000"
 preserveAspectRatio="xMidYMid meet">
<metadata>
Created by potrace 1.14, written by Peter Selinger 2001-2017
</metadata>
<g transform="translate(0.000000,100.000000) scale(0.100000,-0.100000)"
fill="#000000" stroke="none">
<path d="M393 895 c-11 -8 -24 -25 -27 -37 -4 -15 -66 -66 -171 -142 -175
-127 -191 -145 -161 -191 18 -27 77 -57 114 -57 12 0 22 -5 22 -9 0 -5 12 -6
26 -3 20 5 25 4 20 -5 -6 -8 0 -10 18 -5 15 3 32 1 40 -5 11 -9 15 -9 19 1 4
8 6 9 6 1 1 -6 10 -9 22 -6 12 4 25 0 30 -8 6 -10 9 -10 9 -1 0 6 5 12 11 12
5 0 7 -6 3 -12 -6 -9 -3 -9 9 1 15 12 16 5 12 -100 -9 -209 -11 -197 26 -235
18 -18 35 -32 38 -29 2 3 15 -2 29 -11 15 -10 21 -11 17 -3 -6 9 -3 11 8 6 9
-3 24 1 33 10 13 14 17 14 25 2 7 -11 9 -9 9 8 0 17 5 21 22 18 16 -3 19 -2
10 7 -8 8 -7 15 6 25 9 8 11 11 3 7 -11 -6 -13 -3 -7 12 13 32 14 48 3 61 -6
9 -5 13 4 13 12 0 12 2 1 9 -8 4 -12 17 -11 27 2 11 -1 30 -5 43 -6 16 -4 26
5 32 10 6 11 9 2 9 -7 0 -13 5 -13 11 0 5 5 7 10 4 6 -3 10 -1 10 4 0 6 -4 11
-8 11 -5 0 -9 7 -9 15 0 8 5 15 11 15 6 0 4 5 -4 10 -13 9 -13 11 0 19 9 7 19
6 29 -2 12 -9 13 -9 7 1 -9 15 -1 15 26 1 12 -6 18 -7 14 -1 -3 5 1 13 10 16
10 4 13 2 8 -7 -6 -9 -5 -9 7 0 12 10 18 10 29 0 10 -10 11 -9 5 2 -7 11 0 13
35 8 24 -3 38 -2 31 2 -10 6 -9 9 3 14 8 3 17 1 20 -6 3 -9 6 -9 13 0 5 6 21
14 37 17 15 3 39 12 53 21 13 9 30 14 37 12 7 -3 13 1 13 9 0 7 -4 11 -9 8 -4
-3 -8 0 -8 5 0 6 8 11 18 11 10 0 13 3 6 8 -6 4 -14 16 -18 28 -3 12 -79 74
-171 140 -90 65 -164 125 -164 132 -1 7 -12 24 -26 37 -22 23 -32 25 -112 25
-62 0 -95 -4 -110 -15z"/>
<path d="M939 483 c-13 -17 -13 -17 6 -3 11 8 22 16 24 17 2 2 0 3 -6 3 -6 0
-17 -8 -24 -17z"/>
</g>
</svg>
